<svg xmlns="http://www.w3.org/2000/svg" width="733" height="734" viewBox="0 0 733 734" version="1.1"><path d="M 341 2.708 C 320.738 3.995, 292.861 8.439, 273.867 13.411 C 199.298 32.930, 132.462 76.594, 83.925 137.500 C 25.446 210.882, -0.608 297.770, 6.561 395.500 C 9.156 430.870, 20.282 476.159, 34.628 509.745 C 57.106 562.373, 94.421 612.087, 139.785 649.843 C 194.034 694.996, 254.881 721.282, 324.500 729.642 C 346.463 732.279, 385.785 732.093, 408 729.247 C 479.058 720.142, 535.871 695.904, 591 651.176 C 605.856 639.123, 636.759 607.836, 648.864 592.594 C 677.004 557.161, 695.826 521.533, 710.322 476.260 C 722.668 437.701, 727.887 402.497, 727.414 360.952 C 726.863 312.424, 719.947 276.996, 702.241 232 C 684.427 186.731, 662.219 151.415, 628.290 114.401 C 623.198 108.846, 619.362 103.971, 619.766 103.567 C 620.170 103.164, 619.996 102.983, 619.379 103.167 C 618.763 103.350, 613.813 99.653, 608.379 94.950 C 561.561 54.433, 508.681 26.901, 450 12.491 C 416.443 4.251, 375.118 0.542, 341 2.708 M 337.500 67.026 C 286.063 72.754, 238.813 90.451, 196.500 119.837 C 166.275 140.828, 137.154 170.577, 115.865 202.208 C 108.567 213.053, 97.092 233.466, 93.508 241.980 C 89.799 250.794, 82.115 271.735, 81.026 276 C 80.534 277.925, 79.187 283.100, 78.032 287.500 C 67.877 326.194, 65.789 383.983, 73.172 422 C 79.344 453.783, 87.083 477.040, 99.990 502.591 C 127.244 556.548, 168.968 600.090, 224.500 632.527 C 256.793 651.389, 297.127 664.230, 337 668.341 C 362.757 670.997, 402.705 668.496, 423 662.958 C 424.925 662.432, 432.800 660.464, 440.500 658.583 C 487.410 647.125, 537.569 617.609, 576.516 578.546 C 615.264 539.684, 639.492 496.883, 652.395 444.500 C 659.759 414.600, 661.732 398.458, 661.742 368 C 661.754 335.335, 659.521 317.931, 650.969 284 C 649.059 276.423, 640.538 252.951, 636.085 243 C 616.104 198.357, 577.039 151.097, 536.155 122.110 C 515.233 107.276, 492.093 94.727, 468.895 85.636 C 458.401 81.523, 453.539 79.943, 437.500 75.431 C 429.155 73.084, 414.141 70.135, 402 68.459 C 388.524 66.599, 349.184 65.725, 337.500 67.026 M 346.500 92.656 C 320.997 93.977, 291.479 100.692, 265.032 111.188 C 244.155 119.475, 214.548 136.990, 195 152.619 C 181.490 163.421, 157.359 188.206, 147.409 201.500 C 119.454 238.851, 101.978 280.652, 95.987 324.500 C 94.658 334.226, 93.269 357.068, 93.984 357.440 C 94.268 357.587, 110.588 357.809, 130.250 357.933 L 166 358.158 166 352.072 C 166 338.577, 172.045 309.024, 177.902 293.882 C 195.748 247.751, 233.715 205.938, 277 184.747 C 290.780 178.001, 311.248 171.088, 327 167.861 C 337.072 165.797, 341.294 165.505, 361 165.502 C 387.040 165.500, 393.725 166.407, 418.581 173.317 C 436.567 178.318, 459.187 189.889, 475.853 202.614 C 478.292 204.476, 480.946 206, 481.752 206 C 482.557 206, 488.229 201.808, 494.358 196.685 C 511.481 182.370, 523.216 174.419, 538.750 166.607 C 541.638 165.154, 544 163.321, 544 162.533 C 544 161.744, 539.911 157.744, 534.914 153.643 C 499.187 124.328, 454.145 103.785, 409.500 96.443 C 390.451 93.310, 364.262 91.736, 346.500 92.656 M 343.448 192.030 C 312.261 194.598, 277.711 208.934, 252.879 229.611 C 224.396 253.329, 203.572 287.043, 194.886 323.500 C 192.382 334.009, 189.249 356.594, 190.170 357.496 C 190.898 358.211, 325.448 359.185, 324.768 358.471 C 324.365 358.048, 323.113 357.207, 321.985 356.601 C 317.588 354.240, 261.261 318.972, 257.277 316.086 C 252.369 312.531, 249 306.596, 249 301.507 C 249 295.159, 253.182 288.967, 265.190 277.533 C 280.473 262.981, 283.472 260.998, 290.180 261.007 C 293.106 261.011, 322.500 263.484, 355.500 266.502 C 388.500 269.520, 416.470 271.992, 417.655 271.995 C 419.184 271.998, 425.941 265.388, 440.905 249.250 C 452.506 236.738, 461.996 225.825, 461.992 225 C 461.983 223.016, 446.922 212.968, 436.660 208.100 C 407.571 194.302, 377.930 189.191, 343.448 192.030 M 547 193.587 C 539.422 195.592, 526.644 201.830, 517.568 207.954 C 504.203 216.973, 492.745 227.419, 467.330 253.756 C 453.674 267.908, 438.900 283.201, 434.500 287.739 L 426.500 295.990 406 294.011 C 384.806 291.965, 342.174 288.171, 310.137 285.480 C 300.037 284.631, 290.992 284.185, 290.037 284.488 C 287.280 285.363, 273.583 299.987, 274.599 300.971 C 275.367 301.714, 321.745 330.469, 358.500 352.989 C 364.550 356.696, 369.500 360.208, 369.500 360.793 C 369.500 361.378, 353.003 380.493, 332.840 403.271 C 306.687 432.817, 295.108 445.195, 292.438 446.462 C 287.230 448.934, 278.511 448.657, 260.709 445.453 C 251.457 443.788, 244.603 443.040, 242.401 443.453 C 237.961 444.285, 231.254 450.256, 228.866 455.500 C 223.972 466.245, 227.873 470.291, 252.500 480.022 C 266.301 485.475, 271 488.437, 271 491.683 C 271 494.681, 268.877 498.896, 266.102 501.407 C 263.146 504.083, 263.453 505.398, 267.843 508.876 L 271.686 511.919 275.093 508.378 C 282.736 500.432, 285.520 501.101, 291.113 512.225 C 301.396 532.676, 310.074 542.162, 320.566 544.419 C 324.367 545.236, 328.179 542.529, 330.992 537.016 C 335.086 528.992, 334.424 508.752, 329.466 490.374 L 327.005 481.247 335.752 472.791 C 352.104 456.983, 408.613 404.722, 409.855 404.259 C 410.210 404.127, 412.143 406.602, 414.152 409.759 C 448.895 464.378, 474.091 503, 474.978 503 C 475.931 503, 486.772 489.882, 490.475 484.246 C 492.908 480.544, 493.186 479.377, 492.618 475.246 C 492.259 472.636, 490.831 461.725, 489.444 451 C 488.058 440.275, 486.246 426.325, 485.418 420 C 480.670 383.706, 476 345.382, 476 342.707 C 476 340.004, 478.959 336.702, 499.870 316.061 C 534.918 281.467, 557.204 253.634, 570.037 228.428 C 577.475 213.818, 577.315 205.310, 569.467 198.076 C 566.501 195.342, 563.788 193.906, 560.097 193.114 C 553.825 191.769, 553.877 191.767, 547 193.587 M 501.513 376.500 C 502.300 381.143, 509.042 433.458, 510.082 443 C 510.592 447.675, 511.732 456.675, 512.617 463 C 515.867 486.236, 515.890 485.894, 510.432 494.731 C 496.385 517.471, 479.387 534.218, 456.811 547.559 C 427.230 565.039, 386.245 574.246, 352.225 571.055 C 324.481 568.453, 307.189 563.649, 284.899 552.354 C 235.391 527.265, 199.423 488.681, 179.373 439.150 C 177.447 434.393, 175.194 428.025, 174.367 425 C 170.253 409.950, 168.051 399.543, 166.963 390 L 165.766 379.500 129.883 379.272 L 94 379.045 94 384.984 C 94 407.461, 104.633 455.090, 114.766 478 C 125.501 502.272, 135.600 518.749, 153.070 540.489 C 188.692 584.820, 237.123 618.110, 289.749 634.437 C 301.624 638.121, 311.791 640.660, 319.500 641.866 C 323.350 642.469, 329.425 643.439, 333 644.021 C 352.091 647.134, 384.207 646.219, 409 641.857 C 420.385 639.854, 441.091 634.825, 447.500 632.507 C 496.445 614.802, 530.880 592.496, 565.198 556.266 C 607.366 511.749, 632.101 455.970, 636.932 394.500 C 637.537 386.800, 638.207 378.813, 638.421 376.750 L 638.810 373 569.907 373.250 L 501.003 373.500 501.513 376.500 M 191.004 384.250 C 191.029 398.411, 204.402 444, 208.530 444 C 209.206 444, 211.577 441.593, 213.798 438.652 C 218.125 432.920, 226.012 427.127, 232.500 424.915 C 238.380 422.910, 253.588 423.314, 268.344 425.867 C 277.701 427.485, 281.543 427.794, 282.496 427.003 C 285.506 424.506, 319.527 384.837, 319.823 383.481 C 320.106 382.185, 312.075 382, 255.573 382 L 191 382 191.004 384.250 M 383.941 458.245 C 372.698 468.830, 360.640 480.218, 357.145 483.552 L 350.790 489.614 352.592 498.057 C 354.713 507.993, 355.036 530.445, 353.182 539 C 352.526 542.025, 351.714 545.737, 351.378 547.250 L 350.767 550 365.311 550 C 382.425 550, 391.523 548.889, 406.500 544.972 C 418.387 541.863, 426.433 538.821, 437.462 533.267 C 444.470 529.739, 459 520.402, 459 519.428 C 459 519.146, 449.419 504.422, 437.708 486.708 C 425.997 468.994, 414.185 451.018, 411.458 446.763 C 408.731 442.508, 406.023 439.020, 405.441 439.013 C 404.859 439.006, 395.184 447.660, 383.941 458.245" stroke="none" fill="#2c5c44" fill-rule="evenodd"/><path d="M 337.500 67.026 C 286.063 72.754, 238.813 90.451, 196.500 119.837 C 166.275 140.828, 137.154 170.577, 115.865 202.208 C 108.567 213.053, 97.092 233.466, 93.508 241.980 C 89.799 250.794, 82.115 271.735, 81.026 276 C 80.534 277.925, 79.187 283.100, 78.032 287.500 C 67.877 326.194, 65.789 383.983, 73.172 422 C 79.344 453.783, 87.083 477.040, 99.990 502.591 C 127.244 556.548, 168.968 600.090, 224.500 632.527 C 256.793 651.389, 297.127 664.230, 337 668.341 C 362.757 670.997, 402.705 668.496, 423 662.958 C 424.925 662.432, 432.800 660.464, 440.500 658.583 C 487.410 647.125, 537.569 617.609, 576.516 578.546 C 615.264 539.684, 639.492 496.883, 652.395 444.500 C 659.759 414.600, 661.732 398.458, 661.742 368 C 661.754 335.335, 659.521 317.931, 650.969 284 C 649.059 276.423, 640.538 252.951, 636.085 243 C 616.104 198.357, 577.039 151.097, 536.155 122.110 C 515.233 107.276, 492.093 94.727, 468.895 85.636 C 458.401 81.523, 453.539 79.943, 437.500 75.431 C 429.155 73.084, 414.141 70.135, 402 68.459 C 388.524 66.599, 349.184 65.725, 337.500 67.026 M 346.500 92.656 C 320.997 93.977, 291.479 100.692, 265.032 111.188 C 244.155 119.475, 214.548 136.990, 195 152.619 C 181.490 163.421, 157.359 188.206, 147.409 201.500 C 119.454 238.851, 101.978 280.652, 95.987 324.500 C 94.658 334.226, 93.269 357.068, 93.984 357.440 C 94.268 357.587, 110.588 357.809, 130.250 357.933 L 166 358.158 166 352.072 C 166 338.577, 172.045 309.024, 177.902 293.882 C 195.748 247.751, 233.715 205.938, 277 184.747 C 290.780 178.001, 311.248 171.088, 327 167.861 C 337.072 165.797, 341.294 165.505, 361 165.502 C 387.040 165.500, 393.725 166.407, 418.581 173.317 C 436.567 178.318, 459.187 189.889, 475.853 202.614 C 478.292 204.476, 480.946 206, 481.752 206 C 482.557 206, 488.229 201.808, 494.358 196.685 C 511.481 182.370, 523.216 174.419, 538.750 166.607 C 541.638 165.154, 544 163.321, 544 162.533 C 544 161.744, 539.911 157.744, 534.914 153.643 C 499.187 124.328, 454.145 103.785, 409.500 96.443 C 390.451 93.310, 364.262 91.736, 346.500 92.656 M 343.448 192.030 C 312.261 194.598, 277.711 208.934, 252.879 229.611 C 224.396 253.329, 203.572 287.043, 194.886 323.500 C 192.382 334.009, 189.249 356.594, 190.170 357.496 C 190.898 358.211, 325.448 359.185, 324.768 358.471 C 324.365 358.048, 323.113 357.207, 321.985 356.601 C 317.588 354.240, 261.261 318.972, 257.277 316.086 C 252.369 312.531, 249 306.596, 249 301.507 C 249 295.159, 253.182 288.967, 265.190 277.533 C 280.473 262.981, 283.472 260.998, 290.180 261.007 C 293.106 261.011, 322.500 263.484, 355.500 266.502 C 388.500 269.520, 416.470 271.992, 417.655 271.995 C 419.184 271.998, 425.941 265.388, 440.905 249.250 C 452.506 236.738, 461.996 225.825, 461.992 225 C 461.983 223.016, 446.922 212.968, 436.660 208.100 C 407.571 194.302, 377.930 189.191, 343.448 192.030 M 547 193.587 C 539.422 195.592, 526.644 201.830, 517.568 207.954 C 504.203 216.973, 492.745 227.419, 467.330 253.756 C 453.674 267.908, 438.900 283.201, 434.500 287.739 L 426.500 295.990 406 294.011 C 384.806 291.965, 342.174 288.171, 310.137 285.480 C 300.037 284.631, 290.992 284.185, 290.037 284.488 C 287.280 285.363, 273.583 299.987, 274.599 300.971 C 275.367 301.714, 321.745 330.469, 358.500 352.989 C 364.550 356.696, 369.500 360.208, 369.500 360.793 C 369.500 361.378, 353.003 380.493, 332.840 403.271 C 306.687 432.817, 295.108 445.195, 292.438 446.462 C 287.230 448.934, 278.511 448.657, 260.709 445.453 C 251.457 443.788, 244.603 443.040, 242.401 443.453 C 237.961 444.285, 231.254 450.256, 228.866 455.500 C 223.972 466.245, 227.873 470.291, 252.500 480.022 C 266.301 485.475, 271 488.437, 271 491.683 C 271 494.681, 268.877 498.896, 266.102 501.407 C 263.146 504.083, 263.453 505.398, 267.843 508.876 L 271.686 511.919 275.093 508.378 C 282.736 500.432, 285.520 501.101, 291.113 512.225 C 301.396 532.676, 310.074 542.162, 320.566 544.419 C 324.367 545.236, 328.179 542.529, 330.992 537.016 C 335.086 528.992, 334.424 508.752, 329.466 490.374 L 327.005 481.247 335.752 472.791 C 352.104 456.983, 408.613 404.722, 409.855 404.259 C 410.210 404.127, 412.143 406.602, 414.152 409.759 C 448.895 464.378, 474.091 503, 474.978 503 C 475.931 503, 486.772 489.882, 490.475 484.246 C 492.908 480.544, 493.186 479.377, 492.618 475.246 C 492.259 472.636, 490.831 461.725, 489.444 451 C 488.058 440.275, 486.246 426.325, 485.418 420 C 480.670 383.706, 476 345.382, 476 342.707 C 476 340.004, 478.959 336.702, 499.870 316.061 C 534.918 281.467, 557.204 253.634, 570.037 228.428 C 577.475 213.818, 577.315 205.310, 569.467 198.076 C 566.501 195.342, 563.788 193.906, 560.097 193.114 C 553.825 191.769, 553.877 191.767, 547 193.587 M 501.513 376.500 C 502.300 381.143, 509.042 433.458, 510.082 443 C 510.592 447.675, 511.732 456.675, 512.617 463 C 515.867 486.236, 515.890 485.894, 510.432 494.731 C 496.385 517.471, 479.387 534.218, 456.811 547.559 C 427.230 565.039, 386.245 574.246, 352.225 571.055 C 324.481 568.453, 307.189 563.649, 284.899 552.354 C 235.391 527.265, 199.423 488.681, 179.373 439.150 C 177.447 434.393, 175.194 428.025, 174.367 425 C 170.253 409.950, 168.051 399.543, 166.963 390 L 165.766 379.500 129.883 379.272 L 94 379.045 94 384.984 C 94 407.461, 104.633 455.090, 114.766 478 C 125.501 502.272, 135.600 518.749, 153.070 540.489 C 188.692 584.820, 237.123 618.110, 289.749 634.437 C 301.624 638.121, 311.791 640.660, 319.500 641.866 C 323.350 642.469, 329.425 643.439, 333 644.021 C 352.091 647.134, 384.207 646.219, 409 641.857 C 420.385 639.854, 441.091 634.825, 447.500 632.507 C 496.445 614.802, 530.880 592.496, 565.198 556.266 C 607.366 511.749, 632.101 455.970, 636.932 394.500 C 637.537 386.800, 638.207 378.813, 638.421 376.750 L 638.810 373 569.907 373.250 L 501.003 373.500 501.513 376.500 M 191.004 384.250 C 191.029 398.411, 204.402 444, 208.530 444 C 209.206 444, 211.577 441.593, 213.798 438.652 C 218.125 432.920, 226.012 427.127, 232.500 424.915 C 238.380 422.910, 253.588 423.314, 268.344 425.867 C 277.701 427.485, 281.543 427.794, 282.496 427.003 C 285.506 424.506, 319.527 384.837, 319.823 383.481 C 320.106 382.185, 312.075 382, 255.573 382 L 191 382 191.004 384.250 M 383.941 458.245 C 372.698 468.830, 360.640 480.218, 357.145 483.552 L 350.790 489.614 352.592 498.057 C 354.713 507.993, 355.036 530.445, 353.182 539 C 352.526 542.025, 351.714 545.737, 351.378 547.250 L 350.767 550 365.311 550 C 382.425 550, 391.523 548.889, 406.500 544.972 C 418.387 541.863, 426.433 538.821, 437.462 533.267 C 444.470 529.739, 459 520.402, 459 519.428 C 459 519.146, 449.419 504.422, 437.708 486.708 C 425.997 468.994, 414.185 451.018, 411.458 446.763 C 408.731 442.508, 406.023 439.020, 405.441 439.013 C 404.859 439.006, 395.184 447.660, 383.941 458.245" stroke="none" fill="#bcdccc" fill-rule="evenodd"/></svg>